# xmcd
#
# Track frame offsets: 
#        150
#        12687
#        25060
#        40495
#        54952
#        67737
#        80762
#        92652
#        105285
#        118832
#        130767
#        144027
#        155427
#        168132
#        181852
#        194620
#        208307
#        221537
#        233255
#        245462
#        258895
#        271587
#        284555
#
# Disc length: 3973 seconds
#
# Revision: 0
# Processed by: cddbd v1.4PL0 Copyright (c) Steve Scherf et al.
# Submitted via: ExactAudioCopy v0.90b4
#
DISCID=350f8317
DTITLE=Hank Snow - The Yodelling Ranger, Vol. 1 - Disc 2
DYEAR=1900
DGENRE=Country
TTITLE0=I'll Tell The World That I Love You
TTITLE1=Polka Dot Blues
TTITLE2=The Alphabet Song
TTITLE3=Galveston Rose
TTITLE4=Broken Dreams
TTITLE5=Let's Pretend
TTITLE6=The Days Are Long, I'm Weary
TTITLE7=I Traded My Saddle For A Rifle
TTITLE8=When Someone You Love Doesn't Love You
TTITLE9=The Rainbow's End
TTITLE10=We'll Never Say Goodbye, Just Say So Long
TTITLE11=I'm Sending You Red Roses
TTITLE12=Goodnight Little Buckaroo
TTITLE13=When My Blue Moon Turns To Gold Again
TTITLE14=Dream Tide
TTITLE15=Seal Our Parting With A Kiss
TTITLE16=You'll Regret Those Words My Darling
TTITLE17=You Promised To Love Me To The End Of The World
TTITLE18=Just Across The Bridge Of Gold
TTITLE19=There's A Pony That's Lonely Tonight
TTITLE20=Old Moon Of Kentucky
TTITLE21=Rose Of The Rio
TTITLE22=Lonely And Heartsick
EXTD=
EXTT0=
EXTT1=
EXTT2=
EXTT3=
EXTT4=
EXTT5=
EXTT6=
EXTT7=
EXTT8=
EXTT9=
EXTT10=
EXTT11=
EXTT12=
EXTT13=
EXTT14=
EXTT15=
EXTT16=
EXTT17=
EXTT18=
EXTT19=
EXTT20=
EXTT21=
EXTT22=
PLAYORDER=
